<?xml version="1.0" encoding="utf-8"?>
<!-- Svg Vector Icons : http://www.onlinewebfonts.com/icon -->
<!DOCTYPE svg PUBLIC "-//W3C//DTD SVG 1.1//EN" "http://www.w3.org/Graphics/SVG/1.1/DTD/svg11.dtd">
<svg version="1.1" xmlns="http://www.w3.org/2000/svg" xmlns:xlink="http://www.w3.org/1999/xlink" x="0px" y="0px" viewBox="0 0 1000 1000" enable-background="new 0 0 1000 1000" xml:space="preserve">
<metadata> Svg Vector Icons : http://www.onlinewebfonts.com/icon </metadata>
<g><g transform="matrix(1 0 0 -1 0 960)"><path d="M34.5,754c-6.5,0-12.2,2.5-17.1,7.3c-4.9,4.9-7.4,10.6-7.4,17.2v147c0,6.5,2.4,12.3,7.4,17.1c4.9,4.9,10.6,7.4,17.1,7.4h931c6.5,0,12.2-2.5,17.2-7.4c4.9-4.9,7.3-10.6,7.3-17.1v-147c0-6.5-2.5-12.3-7.3-17.2c-4.9-4.9-10.6-7.3-17.2-7.3H34.5z M34.5,362c-6.5,0-12.2,2.5-17.1,7.4c-4.9,4.9-7.4,10.6-7.4,17.2v147c0,6.5,2.4,12.3,7.4,17.2c4.9,4.9,10.6,7.3,17.1,7.3h931c6.5,0,12.2-2.5,17.2-7.3c4.9-4.9,7.3-10.6,7.3-17.2v-147c0-6.5-2.5-12.3-7.3-17.2c-4.9-4.9-10.6-7.4-17.2-7.4H34.5z M34.5-30c-6.5,0-12.2,2.5-17.1,7.3C12.4-17.7,10-12,10-5.5v147c0,6.5,2.4,12.2,7.4,17.2c4.9,4.9,10.6,7.3,17.1,7.3h931c6.5,0,12.2-2.5,17.2-7.3c4.9-4.9,7.3-10.6,7.3-17.2v-147c0-6.5-2.5-12.2-7.3-17.2c-4.9-4.9-10.6-7.3-17.2-7.3H34.5z"/></g></g>
</svg>